<svg width="518" height="464" viewBox="0 0 518 464" fill="none" xmlns="http://www.w3.org/2000/svg">
<path d="M279.423 211.356C278.143 211.567 276.848 211.729 275.536 211.858C262.805 213.057 252.536 212.522 244.454 211.227C207.817 201.751 174.208 157.971 174.208 105.332C174.208 56.7895 203.411 15.7467 234.898 2.22229C189.806 11.7298 148.293 54.8945 148.293 106.708C148.293 155.347 185.756 196.325 226.702 209.056C233.683 212.069 244.891 215.179 261.574 215.179C265.931 215.179 270.66 214.968 275.779 214.482C277.01 214.369 278.224 214.207 279.423 214.029V211.356Z" fill="white"/>
<path d="M244.487 145.16C242.867 142.941 241.474 140.317 240.259 137.304C239.044 134.275 238.445 131.36 238.445 128.542C238.445 124.719 241.344 120.103 247.418 117.074H196.107L264.684 213.656V277.812L296.77 250.099L297.029 215.665L291.376 207.939L244.487 145.16Z" fill="white"/>
<path d="M368.603 120.071H331.464V120.184H322.328C267.858 119.212 228.354 94.5282 223.625 58.4739C221.438 41.7426 224.678 27.5865 233.035 17.5606C240.437 8.66856 251.726 3.38837 264.781 2.7243C273.706 2.27079 280.557 3.56654 285.319 5.08905C288.898 6.22283 292.219 8.06927 295.215 10.3368C322.134 30.7125 327.301 67.8357 327.301 67.8357H353.038C341.02 7.27562 281.853 0.861663 274.936 0.31097C271.859 0.00322936 268.425 -0.0939518 264.635 0.100411C250.819 0.813073 238.882 6.41719 230.994 15.8924C222.167 26.5013 218.717 41.3376 221.001 58.8303C225.876 96.0507 266.044 121.334 321.486 122.533V122.597H330.589L295.879 185.295H325.73L362.351 124.913C363.841 123.099 365.882 121.415 368.603 120.071Z" fill="white"/>
<path d="M54.0594 354.232H55.5534V411.336H51.6524L8.24338 364.69V411.336H6.74938V354.232H9.07338L54.0594 402.372V354.232ZM115.402 410.672L115.651 411.336H108.098L104.28 401.459L103.035 398.637H70.4162L65.2702 411.253H63.6102L85.6052 357.054L86.6842 354.315H93.1582L115.402 410.672ZM71.0802 397.143H102.537L86.9332 357.22L71.8272 395.068L71.0802 397.143ZM123.63 354.232H130.519V411.336H123.63V356.722V354.232ZM150.457 409.842H179.673C179.23 410.34 178.815 410.81 178.428 411.253H143.651V356.639V354.232H146.224H150.457V409.842ZM242.547 380.626C244.539 381.345 246.31 382.065 247.859 382.784C249.464 383.448 251.179 384.333 253.005 385.44C254.887 386.547 256.436 387.709 257.653 388.926C258.926 390.143 259.977 391.582 260.807 393.242C261.693 394.902 262.135 396.645 262.135 398.471C262.135 401.016 261.499 403.257 260.226 405.194C258.954 407.075 257.238 408.569 255.08 409.676C252.978 410.727 250.681 411.502 248.191 412C245.757 412.553 243.156 412.83 240.389 412.83C234.911 412.83 230.374 411.779 226.777 409.676C223.236 407.518 220.857 404.447 219.639 400.463L223.208 399.799C223.54 400.961 223.983 402.068 224.536 403.119C225.09 404.17 225.864 405.222 226.86 406.273C227.856 407.269 229.018 408.154 230.346 408.929C231.674 409.648 233.307 410.257 235.243 410.755C237.235 411.198 239.449 411.419 241.883 411.419C245.978 411.419 249.409 410.285 252.175 408.016C254.942 405.692 256.325 402.815 256.325 399.384C256.325 398.388 256.159 397.475 255.827 396.645C255.551 395.76 255.191 395.013 254.748 394.404C254.361 393.74 253.697 393.076 252.756 392.412C251.816 391.693 250.986 391.139 250.266 390.752C249.602 390.309 248.523 389.784 247.029 389.175C245.591 388.566 244.429 388.096 243.543 387.764C242.658 387.432 241.302 386.934 239.476 386.27L237.069 385.357C235.409 384.748 234.137 384.306 233.251 384.029C232.366 383.697 231.149 383.199 229.599 382.535C228.105 381.816 226.943 381.207 226.113 380.709C225.283 380.156 224.315 379.464 223.208 378.634C222.102 377.749 221.272 376.863 220.718 375.978C220.165 375.093 219.667 374.041 219.224 372.824C218.837 371.607 218.643 370.306 218.643 368.923C218.643 367.429 219.058 365.852 219.888 364.192C220.718 362.532 221.908 360.983 223.457 359.544C225.062 358.05 227.192 356.833 229.848 355.892C232.56 354.896 235.548 354.398 238.812 354.398C248.053 354.398 254.97 357.497 259.562 363.694L256.325 364.939C254.167 361.84 251.594 359.461 248.606 357.801C245.674 356.141 242.464 355.311 238.978 355.311C233.334 355.311 229.212 356.971 226.611 360.291C225.505 361.619 224.758 363.085 224.37 364.69C224.038 366.295 224.011 367.706 224.287 368.923C224.453 369.698 224.73 370.445 225.117 371.164C225.505 371.883 225.92 372.52 226.362 373.073C226.805 373.571 227.414 374.097 228.188 374.65C229.018 375.148 229.71 375.563 230.263 375.895C230.872 376.227 231.785 376.642 233.002 377.14C234.22 377.638 235.188 378.025 235.907 378.302C236.627 378.579 237.761 378.966 239.31 379.464C240.583 379.907 241.662 380.294 242.547 380.626ZM262.337 354.066H312.303L311.805 355.56H290.723V411.336H283.917V355.56H262.835L262.337 354.066ZM367.432 354.149L367.515 388.677C367.515 395.04 365.191 400.491 360.543 405.028C355.951 409.51 350.39 411.751 343.86 411.751C339.434 411.751 335.256 410.7 331.327 408.597C327.454 406.439 324.355 403.589 322.031 400.048C319.707 396.507 318.545 392.716 318.545 388.677L318.462 355.394C318.462 355.283 318.462 354.868 318.462 354.149H325.268L325.351 388.677C325.351 394.598 327.094 399.495 330.58 403.368C334.066 407.186 338.493 409.095 343.86 409.095C350.556 409.095 355.923 407.214 359.962 403.451C364.057 399.688 366.104 394.764 366.104 388.677V356.639L366.021 354.149H367.432ZM419.439 361.785C425.138 366.931 427.988 373.931 427.988 382.784C427.988 391.361 424.585 398.582 417.779 404.447C412.522 408.984 405.523 411.253 396.78 411.253H379.682V356.639C379.627 355.754 379.599 354.951 379.599 354.232H396.78C406.242 354.232 413.795 356.75 419.439 361.785ZM396.78 410.174C412.937 410.174 421.016 401.044 421.016 382.784C421.016 373.765 418.941 366.931 414.791 362.283C410.696 357.635 404.693 355.311 396.78 355.311H386.322V410.174H396.78ZM438.447 354.232H445.336V411.336H438.447V356.722V354.232ZM484.778 352.987C489.869 352.987 494.655 354.343 499.137 357.054C503.674 359.765 507.271 363.417 509.927 368.01C512.638 372.547 513.994 377.417 513.994 382.618C513.994 387.764 512.638 392.633 509.927 397.226C507.271 401.763 503.674 405.388 499.137 408.099C494.655 410.81 489.869 412.166 484.778 412.166C479.632 412.166 474.818 410.838 470.336 408.182C465.854 405.471 462.285 401.846 459.629 397.309C457.028 392.716 455.728 387.819 455.728 382.618C455.728 377.361 457.028 372.464 459.629 367.927C462.285 363.334 465.854 359.71 470.336 357.054C474.818 354.343 479.632 352.987 484.778 352.987ZM502.623 401.791C504.836 398.692 506.33 395.068 507.105 390.918C507.88 386.768 507.88 382.452 507.105 377.97C505.722 370.223 502.457 364.192 497.311 359.876C492.22 355.56 486.41 353.928 479.881 354.979C474.514 355.92 470.225 358.659 467.016 363.196C464.913 366.184 463.475 369.725 462.7 373.82C461.981 377.915 462.008 382.175 462.783 386.602C464.056 393.74 466.85 399.495 471.166 403.866C475.537 408.237 480.545 410.423 486.189 410.423C487.351 410.423 488.513 410.34 489.675 410.174C495.042 409.233 499.358 406.439 502.623 401.791Z" fill="white"/>
<path d="M45.6096 463C45.287 463 45.0156 462.89 44.7956 462.67C44.5756 462.45 44.4656 462.179 44.4656 461.856V446.962C44.4656 446.625 44.5756 446.353 44.7956 446.148C45.0156 445.928 45.287 445.818 45.6096 445.818H50.8676C51.865 445.818 52.7376 446.016 53.4856 446.412C54.2483 446.793 54.8423 447.329 55.2676 448.018C55.7076 448.707 55.9276 449.499 55.9276 450.394C55.9276 451.113 55.7296 451.765 55.3336 452.352C54.9523 452.924 54.4243 453.379 53.7496 453.716C54.7176 453.951 55.495 454.413 56.0816 455.102C56.6683 455.791 56.9616 456.693 56.9616 457.808C56.9616 458.82 56.7196 459.715 56.2356 460.492C55.7663 461.269 55.1063 461.885 54.2556 462.34C53.405 462.78 52.4296 463 51.3296 463H45.6096ZM46.7536 460.888H51.3296C52.0043 460.888 52.5983 460.771 53.1116 460.536C53.625 460.301 54.0283 459.957 54.3216 459.502C54.615 459.047 54.7616 458.483 54.7616 457.808C54.7616 457.177 54.615 456.657 54.3216 456.246C54.0283 455.835 53.625 455.527 53.1116 455.322C52.5983 455.102 52.0043 454.992 51.3296 454.992H46.7536V460.888ZM46.7536 452.88H50.8676C51.7036 452.88 52.3856 452.675 52.9136 452.264C53.4563 451.853 53.7276 451.23 53.7276 450.394C53.7276 449.558 53.4563 448.942 52.9136 448.546C52.3856 448.135 51.7036 447.93 50.8676 447.93H46.7536V452.88ZM71.0164 463C70.7084 463 70.4444 462.89 70.2244 462.67C70.0044 462.45 69.8944 462.179 69.8944 461.856V456.73L64.0204 447.6C63.8297 447.292 63.7564 447.006 63.8004 446.742C63.8444 446.463 63.969 446.243 64.1744 446.082C64.3944 445.906 64.6437 445.818 64.9224 445.818C65.1717 445.818 65.3697 445.877 65.5164 445.994C65.663 446.097 65.8024 446.251 65.9344 446.456L71.5224 455.322H70.6424L76.3184 446.368C76.4357 446.192 76.575 446.06 76.7364 445.972C76.8977 445.869 77.0957 445.818 77.3304 445.818C77.5944 445.818 77.8144 445.913 77.9904 446.104C78.1664 446.28 78.269 446.507 78.2984 446.786C78.3277 447.05 78.2544 447.321 78.0784 447.6L72.1604 456.73V461.856C72.1604 462.179 72.0504 462.45 71.8304 462.67C71.6104 462.89 71.339 463 71.0164 463ZM105.4 463C105.092 463 104.828 462.89 104.608 462.67C104.388 462.45 104.278 462.179 104.278 461.856V456.73L98.404 447.6C98.2133 447.292 98.14 447.006 98.184 446.742C98.228 446.463 98.3526 446.243 98.558 446.082C98.778 445.906 99.0273 445.818 99.306 445.818C99.5553 445.818 99.7533 445.877 99.9 445.994C100.047 446.097 100.186 446.251 100.318 446.456L105.906 455.322H105.026L110.702 446.368C110.819 446.192 110.959 446.06 111.12 445.972C111.281 445.869 111.479 445.818 111.714 445.818C111.978 445.818 112.198 445.913 112.374 446.104C112.55 446.28 112.653 446.507 112.682 446.786C112.711 447.05 112.638 447.321 112.462 447.6L106.544 456.73V461.856C106.544 462.179 106.434 462.45 106.214 462.67C105.994 462.89 105.723 463 105.4 463ZM128.784 463.352C127.376 463.352 126.13 463.095 125.044 462.582C123.959 462.054 123.108 461.328 122.492 460.404C121.891 459.48 121.59 458.424 121.59 457.236V446.962C121.59 446.625 121.7 446.353 121.92 446.148C122.14 445.928 122.412 445.818 122.734 445.818C123.072 445.818 123.343 445.928 123.548 446.148C123.768 446.353 123.878 446.625 123.878 446.962V457.236C123.878 458.028 124.084 458.732 124.494 459.348C124.92 459.949 125.499 460.426 126.232 460.778C126.98 461.115 127.831 461.284 128.784 461.284C129.708 461.284 130.522 461.115 131.226 460.778C131.945 460.426 132.502 459.949 132.898 459.348C133.309 458.732 133.514 458.028 133.514 457.236V446.962C133.514 446.625 133.624 446.353 133.844 446.148C134.064 445.928 134.336 445.818 134.658 445.818C134.996 445.818 135.267 445.928 135.472 446.148C135.678 446.353 135.78 446.625 135.78 446.962V457.236C135.78 458.424 135.48 459.48 134.878 460.404C134.292 461.328 133.47 462.054 132.414 462.582C131.358 463.095 130.148 463.352 128.784 463.352ZM147.896 463C147.574 463 147.302 462.89 147.082 462.67C146.877 462.45 146.774 462.179 146.774 461.856V446.962C146.774 446.639 146.884 446.368 147.104 446.148C147.324 445.928 147.588 445.818 147.896 445.818C148.219 445.818 148.49 445.928 148.71 446.148C148.93 446.368 149.04 446.639 149.04 446.962V460.712H157.004C157.327 460.712 157.598 460.822 157.818 461.042C158.038 461.262 158.148 461.533 158.148 461.856C158.148 462.179 158.038 462.45 157.818 462.67C157.598 462.89 157.327 463 157.004 463H147.896ZM168.633 463C168.311 463 168.039 462.89 167.819 462.67C167.599 462.45 167.489 462.179 167.489 461.856V446.962C167.489 446.625 167.599 446.353 167.819 446.148C168.039 445.928 168.311 445.818 168.633 445.818C168.971 445.818 169.242 445.928 169.447 446.148C169.667 446.353 169.777 446.625 169.777 446.962V461.856C169.777 462.179 169.667 462.45 169.447 462.67C169.242 462.89 168.971 463 168.633 463ZM180.089 463C179.678 463 179.363 462.824 179.143 462.472C178.923 462.12 178.901 461.746 179.077 461.35L185.259 446.588C185.479 446.075 185.838 445.818 186.337 445.818C186.865 445.818 187.224 446.075 187.415 446.588L193.619 461.394C193.78 461.805 193.751 462.179 193.531 462.516C193.326 462.839 193.01 463 192.585 463C192.365 463 192.152 462.941 191.947 462.824C191.756 462.692 191.617 462.516 191.529 462.296L186.073 448.744H186.689L181.145 462.296C181.042 462.531 180.888 462.707 180.683 462.824C180.492 462.941 180.294 463 180.089 463ZM181.255 459.216L182.135 457.324H190.759L191.639 459.216H181.255ZM223.585 463.22C222.397 463.22 221.282 463 220.241 462.56C219.214 462.105 218.312 461.482 217.535 460.69C216.772 459.883 216.171 458.945 215.731 457.874C215.306 456.803 215.093 455.645 215.093 454.398C215.093 453.166 215.306 452.022 215.731 450.966C216.171 449.895 216.772 448.964 217.535 448.172C218.312 447.365 219.214 446.735 220.241 446.28C221.268 445.825 222.382 445.598 223.585 445.598C224.714 445.598 225.682 445.745 226.489 446.038C227.31 446.331 228.132 446.815 228.953 447.49C229.07 447.578 229.158 447.673 229.217 447.776C229.29 447.864 229.334 447.959 229.349 448.062C229.378 448.15 229.393 448.26 229.393 448.392C229.393 448.671 229.29 448.905 229.085 449.096C228.894 449.287 228.652 449.389 228.359 449.404C228.08 449.419 227.816 449.323 227.567 449.118C227.024 448.649 226.46 448.289 225.873 448.04C225.301 447.791 224.538 447.666 223.585 447.666C222.72 447.666 221.906 447.842 221.143 448.194C220.38 448.546 219.706 449.03 219.119 449.646C218.547 450.262 218.1 450.981 217.777 451.802C217.454 452.609 217.293 453.474 217.293 454.398C217.293 455.337 217.454 456.217 217.777 457.038C218.1 457.845 218.547 458.556 219.119 459.172C219.706 459.788 220.38 460.272 221.143 460.624C221.906 460.961 222.72 461.13 223.585 461.13C224.333 461.13 225.037 461.005 225.697 460.756C226.372 460.492 227.017 460.133 227.633 459.678C227.897 459.487 228.154 459.407 228.403 459.436C228.667 459.451 228.887 459.553 229.063 459.744C229.239 459.92 229.327 460.169 229.327 460.492C229.327 460.639 229.298 460.785 229.239 460.932C229.195 461.064 229.107 461.189 228.975 461.306C228.198 461.951 227.354 462.435 226.445 462.758C225.536 463.066 224.582 463.22 223.585 463.22ZM229.327 460.492L227.127 460.052V456.114H224.091C223.768 456.114 223.497 456.019 223.277 455.828C223.057 455.637 222.947 455.395 222.947 455.102C222.947 454.809 223.057 454.567 223.277 454.376C223.497 454.185 223.768 454.09 224.091 454.09H228.205C228.542 454.09 228.814 454.2 229.019 454.42C229.224 454.625 229.327 454.897 229.327 455.234V460.492ZM240.731 463C240.408 463 240.137 462.89 239.917 462.67C239.697 462.45 239.587 462.179 239.587 461.856V446.962C239.587 446.625 239.697 446.353 239.917 446.148C240.137 445.928 240.408 445.818 240.731 445.818H244.691C245.791 445.818 246.766 446.053 247.617 446.522C248.467 446.977 249.127 447.607 249.597 448.414C250.081 449.221 250.323 450.159 250.323 451.23C250.323 452.227 250.081 453.115 249.597 453.892C249.127 454.669 248.467 455.278 247.617 455.718C246.766 456.158 245.791 456.378 244.691 456.378H241.875V461.856C241.875 462.179 241.765 462.45 241.545 462.67C241.339 462.89 241.068 463 240.731 463ZM249.861 463C249.655 463 249.465 462.956 249.289 462.868C249.127 462.78 248.988 462.641 248.871 462.45L244.911 456.07L247.133 455.432L250.741 461.24C251.005 461.665 251.041 462.069 250.851 462.45C250.66 462.817 250.33 463 249.861 463ZM241.875 454.266H244.691C245.365 454.266 245.959 454.141 246.473 453.892C246.986 453.628 247.389 453.269 247.683 452.814C247.976 452.345 248.123 451.817 248.123 451.23C248.123 450.585 247.976 450.013 247.683 449.514C247.389 449.015 246.986 448.627 246.473 448.348C245.959 448.069 245.365 447.93 244.691 447.93H241.875V454.266ZM267.281 463.352C265.873 463.352 264.626 463.095 263.541 462.582C262.456 462.054 261.605 461.328 260.989 460.404C260.388 459.48 260.087 458.424 260.087 457.236V446.962C260.087 446.625 260.197 446.353 260.417 446.148C260.637 445.928 260.908 445.818 261.231 445.818C261.568 445.818 261.84 445.928 262.045 446.148C262.265 446.353 262.375 446.625 262.375 446.962V457.236C262.375 458.028 262.58 458.732 262.991 459.348C263.416 459.949 263.996 460.426 264.729 460.778C265.477 461.115 266.328 461.284 267.281 461.284C268.205 461.284 269.019 461.115 269.723 460.778C270.442 460.426 270.999 459.949 271.395 459.348C271.806 458.732 272.011 458.028 272.011 457.236V446.962C272.011 446.625 272.121 446.353 272.341 446.148C272.561 445.928 272.832 445.818 273.155 445.818C273.492 445.818 273.764 445.928 273.969 446.148C274.174 446.353 274.277 446.625 274.277 446.962V457.236C274.277 458.424 273.976 459.48 273.375 460.404C272.788 461.328 271.967 462.054 270.911 462.582C269.855 463.095 268.645 463.352 267.281 463.352ZM286.393 463C286.07 463 285.799 462.89 285.579 462.67C285.374 462.45 285.271 462.179 285.271 461.856V446.962C285.271 446.625 285.374 446.353 285.579 446.148C285.799 445.928 286.07 445.818 286.393 445.818C286.745 445.818 287.038 445.957 287.273 446.236L296.865 458.996V446.962C296.865 446.625 296.975 446.353 297.195 446.148C297.415 445.928 297.686 445.818 298.009 445.818C298.346 445.818 298.618 445.928 298.823 446.148C299.028 446.353 299.131 446.625 299.131 446.962V461.856C299.131 462.179 299.028 462.45 298.823 462.67C298.618 462.89 298.346 463 298.009 463C297.862 463 297.701 462.971 297.525 462.912C297.364 462.839 297.232 462.736 297.129 462.604L287.537 449.844V461.856C287.537 462.179 287.427 462.45 287.207 462.67C287.002 462.89 286.73 463 286.393 463ZM311.277 463C310.969 463 310.697 462.89 310.463 462.67C310.243 462.45 310.133 462.179 310.133 461.856V446.962C310.133 446.639 310.243 446.368 310.463 446.148C310.697 445.928 310.969 445.818 311.277 445.818C311.599 445.818 311.871 445.928 312.091 446.148C312.311 446.368 312.421 446.639 312.421 446.962V453.562L319.703 446.28C319.879 446.104 320.04 445.987 320.187 445.928C320.333 445.855 320.487 445.818 320.649 445.818C321.015 445.818 321.279 445.928 321.441 446.148C321.602 446.368 321.661 446.632 321.617 446.94C321.573 447.233 321.433 447.505 321.199 447.754L315.589 453.386L321.309 461.174C321.485 461.423 321.558 461.695 321.529 461.988C321.499 462.267 321.397 462.509 321.221 462.714C321.045 462.905 320.81 463 320.517 463C320.106 463 319.791 462.839 319.571 462.516L314.005 454.97L312.421 456.554V461.856C312.421 462.179 312.311 462.45 312.091 462.67C311.871 462.89 311.599 463 311.277 463ZM338.468 463.22C337.177 463.22 335.996 463.007 334.926 462.582C333.855 462.142 332.931 461.533 332.154 460.756C331.391 459.964 330.797 459.033 330.372 457.962C329.946 456.877 329.734 455.689 329.734 454.398C329.734 453.107 329.946 451.927 330.372 450.856C330.797 449.785 331.391 448.861 332.154 448.084C332.931 447.292 333.855 446.683 334.926 446.258C335.996 445.818 337.177 445.598 338.468 445.598C339.758 445.598 340.932 445.818 341.988 446.258C343.058 446.683 343.982 447.292 344.76 448.084C345.537 448.861 346.138 449.785 346.564 450.856C346.989 451.927 347.202 453.107 347.202 454.398C347.202 455.689 346.989 456.877 346.564 457.962C346.138 459.033 345.537 459.964 344.76 460.756C343.982 461.533 343.058 462.142 341.988 462.582C340.932 463.007 339.758 463.22 338.468 463.22ZM338.468 461.152C339.421 461.152 340.294 460.983 341.086 460.646C341.892 460.294 342.589 459.817 343.176 459.216C343.762 458.6 344.21 457.881 344.518 457.06C344.84 456.239 345.002 455.351 345.002 454.398C345.002 453.445 344.84 452.557 344.518 451.736C344.21 450.915 343.762 450.203 343.176 449.602C342.589 448.986 341.892 448.509 341.086 448.172C340.294 447.835 339.421 447.666 338.468 447.666C337.514 447.666 336.634 447.835 335.828 448.172C335.036 448.509 334.346 448.986 333.76 449.602C333.188 450.203 332.74 450.915 332.418 451.736C332.095 452.557 331.934 453.445 331.934 454.398C331.934 455.351 332.095 456.239 332.418 457.06C332.74 457.881 333.188 458.6 333.76 459.216C334.346 459.817 335.036 460.294 335.828 460.646C336.634 460.983 337.514 461.152 338.468 461.152ZM363.067 463C362.597 463 362.253 462.758 362.033 462.274L355.587 447.534C355.381 447.035 355.359 446.625 355.521 446.302C355.682 445.979 355.99 445.818 356.445 445.818C356.958 445.818 357.31 446.045 357.501 446.5L363.155 460.074H362.913L368.677 446.5C368.794 446.236 368.926 446.06 369.073 445.972C369.234 445.869 369.447 445.818 369.711 445.818C370.151 445.818 370.451 445.979 370.613 446.302C370.789 446.61 370.789 446.955 370.613 447.336L364.101 462.274C363.998 462.509 363.859 462.692 363.683 462.824C363.521 462.941 363.316 463 363.067 463ZM385.447 463.22C384.509 463.22 383.614 463.073 382.763 462.78C381.913 462.487 381.172 462.076 380.541 461.548C379.911 461.02 379.449 460.411 379.155 459.722C379.009 459.414 379.009 459.128 379.155 458.864C379.317 458.6 379.581 458.431 379.947 458.358C380.211 458.299 380.468 458.343 380.717 458.49C380.981 458.622 381.179 458.827 381.311 459.106C381.487 459.473 381.773 459.81 382.169 460.118C382.58 460.426 383.071 460.675 383.643 460.866C384.215 461.057 384.817 461.152 385.447 461.152C386.151 461.152 386.797 461.042 387.383 460.822C387.985 460.602 388.469 460.287 388.835 459.876C389.202 459.451 389.385 458.93 389.385 458.314C389.385 457.537 389.077 456.84 388.461 456.224C387.86 455.608 386.863 455.227 385.469 455.08C383.651 454.904 382.221 454.369 381.179 453.474C380.138 452.579 379.617 451.472 379.617 450.152C379.617 449.184 379.889 448.363 380.431 447.688C380.974 447.013 381.707 446.5 382.631 446.148C383.57 445.796 384.611 445.62 385.755 445.62C386.65 445.62 387.427 445.745 388.087 445.994C388.762 446.243 389.349 446.588 389.847 447.028C390.346 447.468 390.779 447.989 391.145 448.59C391.351 448.913 391.431 449.221 391.387 449.514C391.358 449.793 391.219 450.013 390.969 450.174C390.691 450.35 390.39 450.387 390.067 450.284C389.745 450.181 389.503 449.991 389.341 449.712C389.107 449.287 388.821 448.927 388.483 448.634C388.146 448.341 387.75 448.113 387.295 447.952C386.841 447.776 386.305 447.688 385.689 447.688C384.604 447.673 383.695 447.879 382.961 448.304C382.228 448.715 381.861 449.353 381.861 450.218C381.861 450.658 381.971 451.083 382.191 451.494C382.426 451.89 382.844 452.235 383.445 452.528C384.061 452.821 384.941 453.027 386.085 453.144C387.831 453.32 389.187 453.855 390.155 454.75C391.138 455.63 391.629 456.796 391.629 458.248C391.629 459.084 391.453 459.81 391.101 460.426C390.764 461.042 390.302 461.563 389.715 461.988C389.143 462.399 388.483 462.707 387.735 462.912C387.002 463.117 386.239 463.22 385.447 463.22ZM402.882 463C402.574 463 402.303 462.89 402.068 462.67C401.848 462.45 401.738 462.179 401.738 461.856V446.962C401.738 446.639 401.848 446.368 402.068 446.148C402.303 445.928 402.574 445.818 402.882 445.818C403.205 445.818 403.476 445.928 403.696 446.148C403.916 446.368 404.026 446.639 404.026 446.962V453.562L411.308 446.28C411.484 446.104 411.645 445.987 411.792 445.928C411.939 445.855 412.093 445.818 412.254 445.818C412.621 445.818 412.885 445.928 413.046 446.148C413.207 446.368 413.266 446.632 413.222 446.94C413.178 447.233 413.039 447.505 412.804 447.754L407.194 453.386L412.914 461.174C413.09 461.423 413.163 461.695 413.134 461.988C413.105 462.267 413.002 462.509 412.826 462.714C412.65 462.905 412.415 463 412.122 463C411.711 463 411.396 462.839 411.176 462.516L405.61 454.97L404.026 456.554V461.856C404.026 462.179 403.916 462.45 403.696 462.67C403.476 462.89 403.205 463 402.882 463ZM422.33 463C421.919 463 421.604 462.824 421.384 462.472C421.164 462.12 421.142 461.746 421.318 461.35L427.5 446.588C427.72 446.075 428.079 445.818 428.578 445.818C429.106 445.818 429.465 446.075 429.656 446.588L435.86 461.394C436.021 461.805 435.992 462.179 435.772 462.516C435.566 462.839 435.251 463 434.826 463C434.606 463 434.393 462.941 434.188 462.824C433.997 462.692 433.858 462.516 433.77 462.296L428.314 448.744H428.93L423.386 462.296C423.283 462.531 423.129 462.707 422.924 462.824C422.733 462.941 422.535 463 422.33 463ZM423.496 459.216L424.376 457.324H433L433.88 459.216H423.496ZM448.467 463C448.159 463 447.895 462.89 447.675 462.67C447.455 462.45 447.345 462.179 447.345 461.856V456.73L441.471 447.6C441.28 447.292 441.207 447.006 441.251 446.742C441.295 446.463 441.419 446.243 441.625 446.082C441.845 445.906 442.094 445.818 442.373 445.818C442.622 445.818 442.82 445.877 442.967 445.994C443.113 446.097 443.253 446.251 443.385 446.456L448.973 455.322H448.093L453.769 446.368C453.886 446.192 454.025 446.06 454.187 445.972C454.348 445.869 454.546 445.818 454.781 445.818C455.045 445.818 455.265 445.913 455.441 446.104C455.617 446.28 455.719 446.507 455.749 446.786C455.778 447.05 455.705 447.321 455.529 447.6L449.611 456.73V461.856C449.611 462.179 449.501 462.45 449.281 462.67C449.061 462.89 448.789 463 448.467 463ZM461.784 463C461.373 463 461.058 462.824 460.838 462.472C460.618 462.12 460.596 461.746 460.772 461.35L466.954 446.588C467.174 446.075 467.533 445.818 468.032 445.818C468.56 445.818 468.919 446.075 469.11 446.588L475.314 461.394C475.475 461.805 475.446 462.179 475.226 462.516C475.02 462.839 474.705 463 474.28 463C474.06 463 473.847 462.941 473.642 462.824C473.451 462.692 473.312 462.516 473.224 462.296L467.768 448.744H468.384L462.84 462.296C462.737 462.531 462.583 462.707 462.378 462.824C462.187 462.941 461.989 463 461.784 463ZM462.95 459.216L463.83 457.324H472.454L473.334 459.216H462.95Z" fill="white"/>
</svg>
