<svg width="221" height="278" viewBox="0 0 221 278" fill="none" xmlns="http://www.w3.org/2000/svg">
<path d="M131.13 211.356C129.85 211.567 128.555 211.729 127.243 211.858C114.512 213.057 104.243 212.522 96.1608 211.227C59.5235 201.751 25.915 157.971 25.915 105.332C25.915 56.7895 55.1179 15.7467 86.6046 2.22229C41.5126 11.7298 0 54.8945 0 106.708C0 155.347 37.4633 196.325 78.409 209.056C85.3899 212.069 96.5981 215.179 113.281 215.179C117.638 215.179 122.367 214.968 127.486 214.482C128.717 214.369 129.931 214.207 131.13 214.029V211.356Z" fill="#282C31"/>
<path d="M96.1935 145.16C94.5738 142.941 93.1809 140.317 91.9662 137.304C90.7514 134.275 90.1521 131.36 90.1521 128.542C90.1521 124.719 93.0513 120.103 99.1251 117.074H47.8135L116.391 213.656V277.812L148.477 250.099L148.736 215.665L143.083 207.939L96.1935 145.16Z" fill="#282C31"/>
<path d="M220.31 120.071H183.171V120.184H174.035C119.565 119.212 80.0613 94.5282 75.3318 58.4739C73.1452 41.7426 76.3846 27.5865 84.7421 17.5606C92.1441 8.66856 103.433 3.38837 116.488 2.7243C125.412 2.27079 132.264 3.56654 137.026 5.08905C140.605 6.22283 143.926 8.06927 146.922 10.3368C173.841 30.7125 179.008 67.8357 179.008 67.8357H204.745C192.727 7.27562 133.559 0.861663 126.643 0.31097C123.566 0.00322936 120.132 -0.0939518 116.342 0.100411C102.526 0.813073 90.5892 6.41719 82.7014 15.8924C73.8741 26.5013 70.4241 41.3376 72.7079 58.8303C77.5831 96.0507 117.751 121.334 173.193 122.533V122.597H182.296L147.586 185.295H177.437L214.058 124.913C215.548 123.099 217.589 121.415 220.31 120.071Z" fill="#282C31"/>
</svg>
